<svg xmlns="http://www.w3.org/2000/svg" viewBox="0 0 166 166" role="img" aria-label="Haget">
    <circle cx="83" cy="83" r="83" fill="#355856"/>
    <g fill="#f4f1ec">
        <path d="M32 52C36 46 55 42 70 42L66 51C49 51 36 56 35 63L49 128C50 134 55 137 62 136L79 134C85 133 88 130 88 124V64C86 58 76 52 66 51L70 42C81 43 91 49 96 56C97 59 98 61 98 64V126C98 138 91 145 79 146L61 148C49 149 41 143 38 131L28 65C27 60 29 55 32 52Z"/>
        <path d="M40 72C46 66 66 64 83 67L83 127C83 132 79 135 74 135L58 136C52 137 49 134 48 129L39 78C38 75 39 73 40 72Z"/>
        <path d="M73 66L80 28L96 31L95 36L84 34L78 68Z"/>
        <circle cx="47" cy="33" r="4"/>
        <circle cx="59" cy="35" r="4"/>
    </g>
</svg>
